<svg width="422" height="145" viewBox="0 0 422 145" fill="none" xmlns="http://www.w3.org/2000/svg">
<path d="M157.2 4.53334C155.6 11.2 155.92 27.3333 157.68 32.8C158.96 36.5333 158.8 38.8 156.72 42.6667C148.08 60.1333 152.24 79.6 167.6 92.5333C178.16 101.333 188.08 105.067 203.28 105.733C220.88 106.533 231.92 102.933 244.24 92.8C259.6 80 264.24 62.1333 256.72 45.3333C253.84 38.9333 253.68 36.9333 255.12 32C257.04 25.6 257.2 11.7333 255.44 5.33334L254.16 1.33334L252.24 7.33334C249.52 15.2 244.08 22.9333 237.04 28.5333C230.8 33.6 230 33.3333 233.68 27.3333L236.08 23.4667L229.36 20.5333C219.76 16.4 198.96 15.4667 188.4 18.6667C177.2 22.1333 176.56 22.9333 179.44 27.6C182.96 33.3333 181.2 33.6 174.64 28C168.08 22.5333 162.8 14.5333 160.08 6.00001L158.32 6.687e-06L157.2 4.53334ZM243.44 66.4C240.24 72.8 234 76 225.2 75.7333C214.48 75.4667 214 73.4667 224.08 70.8C229.52 69.4667 235.12 66.6667 238.8 63.6C245.52 58.1333 247.12 59.2 243.44 66.4ZM185.36 69.7333C189.84 71.2 194.8 72.6667 196.08 72.9333C197.52 73.3333 195.76 74.2667 191.92 75.2C182 77.4667 173.52 74.6667 169.68 68C165.52 60.5333 166.64 58.5333 172.08 63.2C174.8 65.3333 180.72 68.2667 185.36 69.7333Z" fill="black"/>
<path d="M303.28 73.8667C304.08 75.3333 304.88 76.8 304.88 77.0667C304.88 77.3333 299.6 77.8667 293.2 78.2667C278.48 79.0667 271.6 82 246.8 98.4C213.04 120.8 194 128.667 173.36 128.667C153.2 128.667 141.04 120.8 139.12 106.533C138.32 101.333 138.96 98.8 142.16 93.6C146.64 86.2667 145.84 85.7333 138.96 91.6C131.44 98.2667 128.4 104.4 128.4 112.8C128.72 130.667 144.4 142.667 169.84 144.267C194.16 145.867 211.76 138 251.76 107.6C278.16 87.6 287.28 82.5333 299.44 81.0667L307.12 80.2667L303.44 84.4L299.92 88.6667L305.2 87.6C308.08 87.0667 315.28 86.6667 321.36 86.6667C327.28 86.6667 332.08 86.2667 332.08 85.7333C332.08 83.0667 308.4 71.3333 303.12 71.3333C302.16 71.3333 302.16 72.4 303.28 73.8667Z" fill="black"/>
<path d="M49.0795 86.5909V73.5L111.261 44.7727V60.9091L67.0795 79.8636L67.5795 79V81.0909L67.0795 80.2273L111.261 99.1818V115.318L49.0795 86.5909ZM296.705 19.5454L266.705 131H252.295L282.295 19.5454H296.705ZM372.886 86.5909L310.705 115.318V99.1818L354.886 80.2273L354.386 81.0909V79L354.886 79.8636L310.705 60.9091V44.7727L372.886 73.5V86.5909Z" fill="black"/>
</svg>
