<svg width="194" height="71" viewBox="0 0 194 71" fill="none" xmlns="http://www.w3.org/2000/svg">
<path d="M22.9961 38.1392V33.1392L42.9961 24.3324V30.0852L29.3029 35.5824L29.4876 35.2841V35.9943L29.3029 35.696L42.9961 41.1932V46.946L22.9961 38.1392ZM59.4308 50H49.1183V20.9091H59.516C62.4421 20.9091 64.9611 21.4915 67.0728 22.6562C69.1845 23.8116 70.8086 25.4735 71.945 27.642C73.0908 29.8106 73.6637 32.4053 73.6637 35.4261C73.6637 38.4564 73.0908 41.0606 71.945 43.2386C70.8086 45.4167 69.1751 47.0881 67.0444 48.2528C64.9232 49.4176 62.3853 50 59.4308 50ZM55.2688 44.7301H59.1751C60.9933 44.7301 62.5226 44.4081 63.7631 43.7642C65.0131 43.1108 65.9506 42.1023 66.5756 40.7386C67.2101 39.3655 67.5273 37.5947 67.5273 35.4261C67.5273 33.2765 67.2101 31.5199 66.5756 30.1562C65.9506 28.7926 65.0179 27.7888 63.7773 27.1449C62.5368 26.5009 61.0075 26.179 59.1893 26.179H55.2688V44.7301ZM78.1062 50V28.1818H84.1573V50H78.1062ZM81.146 25.3693C80.2463 25.3693 79.4746 25.071 78.8306 24.4744C78.1961 23.8684 77.8789 23.1439 77.8789 22.3011C77.8789 21.4678 78.1961 20.7528 78.8306 20.1562C79.4746 19.5502 80.2463 19.2472 81.146 19.2472C82.0456 19.2472 82.8126 19.5502 83.4471 20.1562C84.091 20.7528 84.413 21.4678 84.413 22.3011C84.413 23.1439 84.091 23.8684 83.4471 24.4744C82.8126 25.071 82.0456 25.3693 81.146 25.3693ZM109.346 28.1818L101.718 50H94.8995L87.2717 28.1818H93.6637L98.195 43.7926H98.4222L102.939 28.1818H109.346ZM112.442 50V28.1818H118.493V50H112.442ZM115.482 25.3693C114.582 25.3693 113.81 25.071 113.167 24.4744C112.532 23.8684 112.215 23.1439 112.215 22.3011C112.215 21.4678 112.532 20.7528 113.167 20.1562C113.81 19.5502 114.582 19.2472 115.482 19.2472C116.382 19.2472 117.149 19.5502 117.783 20.1562C118.427 20.7528 118.749 21.4678 118.749 22.3011C118.749 23.1439 118.427 23.8684 117.783 24.4744C117.149 25.071 116.382 25.3693 115.482 25.3693ZM129.392 20.9091V50H123.341V20.9091H129.392ZM146.909 19.5455L137.534 54.375H132.321L141.696 19.5455H146.909ZM171.004 40.8665L151.004 49.6733V43.9205L164.697 38.4233L164.512 38.7216V38.0114L164.697 38.3097L151.004 32.8125V27.0597L171.004 35.8665V40.8665Z" fill="black"/>
<rect x="108" y="18" width="11" height="9" fill="#F5F3F0"/>
<path d="M108.959 0.692853C108.739 1.71174 108.783 4.17744 109.025 5.01293C109.201 5.5835 109.179 5.92992 108.893 6.52087C107.705 9.19035 108.277 12.1655 110.389 14.1421C111.841 15.4871 113.204 16.0576 115.294 16.1595C117.713 16.2818 119.231 15.7316 120.925 14.1829C123.036 12.2266 123.674 9.49602 122.64 6.92843C122.244 5.9503 122.222 5.64463 122.42 4.89066C122.684 3.91253 122.706 1.79325 122.464 0.815119L122.288 0.203788L122.024 1.12078C121.65 2.32307 120.903 3.50498 119.935 4.36084C119.077 5.13519 118.967 5.09444 119.473 4.17744L119.803 3.58649L118.879 3.13818C117.559 2.50647 114.7 2.36382 113.248 2.85289C111.709 3.38271 111.621 3.50498 112.016 4.21819C112.5 5.09444 112.258 5.13519 111.357 4.27933C110.455 3.44384 109.729 2.22118 109.355 0.917007L109.113 1.14441e-05L108.959 0.692853ZM120.815 10.1481C120.375 11.1262 119.517 11.6153 118.307 11.5745C116.833 11.5338 116.767 11.2281 118.153 10.8206C118.901 10.6168 119.671 10.1889 120.177 9.72017C121.101 8.88469 121.32 9.04771 120.815 10.1481ZM112.83 10.6575C113.446 10.8817 114.128 11.1059 114.304 11.1466C114.502 11.2077 114.26 11.3504 113.732 11.493C112.368 11.8395 111.203 11.4115 110.675 10.3926C110.103 9.25149 110.257 8.94582 111.005 9.65904C111.379 9.98508 112.192 10.4334 112.83 10.6575Z" fill="black"/>
<path d="M129.041 11.2892C129.151 11.5134 129.261 11.7375 129.261 11.7783C129.261 11.819 128.535 11.9005 127.655 11.9617C125.632 12.0839 124.686 12.5322 121.277 15.0387C116.636 18.4622 114.018 19.6644 111.181 19.6644C108.409 19.6644 106.738 18.4622 106.474 16.2817C106.364 15.487 106.452 15.0998 106.892 14.3051C107.507 13.1843 107.397 13.1028 106.452 13.9994C105.418 15.0183 105 15.9557 105 17.2395C105.044 19.9701 107.2 21.8041 110.697 22.0486C114.04 22.2932 116.46 21.0909 121.958 16.4448C125.588 13.3881 126.841 12.6138 128.513 12.3896L129.569 12.2673L129.063 12.899L128.579 13.5511L129.305 13.3881C129.701 13.3066 130.69 13.2455 131.526 13.2455C132.34 13.2455 133 13.1843 133 13.1028C133 12.6953 129.745 10.902 129.019 10.902C128.887 10.902 128.887 11.0651 129.041 11.2892Z" fill="black"/>
</svg>
